<?xml version="1.0" standalone="no"?>
<!DOCTYPE svg PUBLIC "-//W3C//DTD SVG 20010904//EN"
 "http://www.w3.org/TR/2001/REC-SVG-20010904/DTD/svg10.dtd">
<svg version="1.0" xmlns="http://www.w3.org/2000/svg"
 width="1200.000000pt" height="1200.000000pt" viewBox="0 0 1200.000000 1200.000000"
 preserveAspectRatio="xMidYMid meet">
<metadata>
Created by potrace 1.11, written by Peter Selinger 2001-2013
</metadata>
<g transform="translate(0.000000,1200.000000) scale(0.100000,-0.100000)"
fill="#000000" stroke="none">
<path d="M5698 11995 c-1 -1 -55 -6 -118 -10 -63 -3 -128 -8 -145 -10 -16 -2
-57 -7 -90 -10 -89 -10 -173 -20 -235 -30 -14 -2 -56 -9 -95 -15 -185 -29
-511 -104 -715 -164 -95 -28 -374 -121 -405 -135 -11 -5 -74 -30 -140 -57
-183 -72 -243 -100 -470 -214 -386 -196 -699 -397 -1045 -674 -334 -268 -712
-651 -976 -991 -507 -652 -875 -1402 -1078 -2195 -70 -277 -128 -601 -151
-845 -3 -33 -8 -73 -10 -90 -27 -183 -27 -858 1 -1125 9 -86 15 -145 19 -170
2 -14 7 -47 10 -75 51 -443 240 -1131 425 -1540 9 -22 28 -65 41 -95 83 -198
312 -619 443 -815 14 -22 31 -47 36 -55 99 -154 360 -493 507 -658 111 -124
392 -405 508 -508 49 -43 95 -83 101 -89 6 -5 28 -23 49 -40 21 -16 43 -35 49
-41 6 -6 76 -60 156 -121 603 -458 1236 -775 1990 -996 92 -27 279 -75 326
-83 16 -3 37 -7 46 -10 10 -3 30 -7 45 -10 16 -3 62 -11 103 -19 163 -32 392
-64 555 -80 297 -27 830 -27 1115 0 132 13 177 18 305 36 282 40 547 97 795
169 58 17 112 33 120 35 8 2 80 26 160 53 664 228 1282 565 1805 986 246 197
582 516 755 716 36 41 71 82 79 90 88 92 361 461 489 660 384 601 682 1330
816 2000 3 14 7 36 10 50 3 14 9 41 12 60 4 19 8 44 10 55 21 112 45 278 59
415 4 36 9 79 11 95 25 207 25 938 -1 1115 -2 14 -6 54 -10 90 -4 36 -8 76
-10 90 -2 14 -7 48 -10 75 -4 41 -24 163 -50 315 -8 47 -46 215 -71 315 -14
55 -32 127 -40 160 -25 102 -159 495 -219 641 -201 490 -447 927 -754 1339
-66 88 -177 231 -191 245 -3 3 -20 23 -39 45 -107 126 -174 198 -341 365 -102
102 -219 215 -260 250 -41 36 -80 70 -86 75 -6 6 -32 28 -59 50 -27 22 -62 52
-79 66 -17 14 -85 66 -151 116 -593 444 -1241 767 -1954 973 -79 23 -151 43
-160 45 -10 2 -46 10 -82 19 -98 23 -289 63 -339 71 -25 4 -54 9 -65 11 -79
13 -219 34 -265 39 -30 3 -66 8 -80 10 -14 2 -61 6 -105 10 -44 4 -100 9 -125
11 -51 6 -726 14 -732 9z m737 -228 c11 -2 56 -8 100 -11 103 -9 281 -30 335
-41 14 -3 41 -7 60 -10 39 -5 132 -21 170 -30 14 -3 36 -7 50 -10 66 -12 90
-17 149 -32 36 -8 72 -16 80 -18 9 -2 52 -13 96 -25 628 -168 1226 -440 1755
-799 120 -81 154 -105 160 -111 3 -3 41 -32 85 -64 84 -62 275 -217 335 -272
375 -340 620 -611 876 -964 86 -120 126 -178 227 -337 l47 -73 -23 -14 c-25
-16 -195 -114 -247 -143 -19 -11 -134 -77 -254 -147 -121 -70 -236 -136 -255
-147 -20 -11 -52 -29 -71 -40 -31 -19 -147 -86 -750 -434 -74 -43 -178 -103
-230 -133 -52 -30 -108 -62 -125 -72 -25 -14 -766 -442 -902 -521 -23 -13
-123 -71 -224 -129 -100 -58 -198 -114 -218 -126 -20 -11 -184 -107 -366 -211
-181 -105 -344 -199 -362 -209 -18 -11 -119 -69 -225 -130 -106 -62 -278 -161
-383 -222 -104 -60 -229 -132 -277 -160 l-87 -50 -243 140 c-134 77 -272 157
-308 178 -90 53 -366 212 -420 242 -25 14 -117 67 -205 118 -88 51 -173 101
-190 110 -57 32 -470 270 -485 280 -23 14 -169 99 -220 128 -25 14 -113 65
-197 113 -83 49 -167 97 -185 107 -18 11 -211 122 -428 247 -217 125 -408 236
-425 245 -16 9 -131 76 -255 147 -966 559 -1303 753 -1311 753 -5 0 -9 4 -9 8
0 4 -14 13 -30 19 l-30 11 28 49 c350 593 910 1217 1457 1623 33 25 62 47 65
50 28 31 547 370 566 370 2 0 27 14 56 31 62 37 328 171 443 224 280 128 742
286 1025 350 220 50 514 101 695 120 33 4 71 8 84 10 14 3 79 7 145 11 67 3
123 8 125 10 6 5 703 -3 726 -9z m4727 -3170 c249 -498 407 -957 513 -1492 5
-26 17 -97 30 -175 2 -14 6 -38 9 -55 12 -66 26 -176 32 -241 3 -38 8 -80 10
-94 26 -166 26 -870 -1 -1085 -2 -16 -7 -59 -10 -95 -3 -36 -8 -76 -10 -90 -2
-14 -7 -43 -9 -65 -9 -66 -16 -117 -26 -170 -5 -27 -12 -66 -15 -85 -50 -300
-186 -768 -323 -1110 -218 -542 -577 -1137 -951 -1572 -11 -13 -29 -34 -41
-47 -240 -281 -578 -597 -880 -824 -41 -31 -81 -61 -88 -67 -25 -22 -350 -239
-406 -271 -32 -19 -79 -46 -104 -62 -305 -179 -703 -358 -1076 -482 -165 -55
-508 -150 -611 -169 -16 -3 -79 -14 -140 -26 -142 -27 -151 -28 -210 -35 -27
-4 -57 -8 -65 -10 -8 -2 -42 -7 -75 -10 -33 -3 -76 -8 -95 -10 -83 -11 -180
-18 -402 -30 l-108 -6 0 2848 0 2849 137 79 c76 44 145 85 155 90 9 6 34 20
55 31 21 12 211 122 423 244 344 199 733 423 815 470 17 10 273 158 570 330
297 171 558 322 580 335 22 12 171 98 330 190 264 153 840 485 1220 705 83 47
258 148 390 224 132 76 244 142 250 147 27 25 43 4 127 -164z m-10086 52 c188
-108 126 -72 609 -351 215 -124 405 -234 424 -244 18 -10 41 -23 50 -29 13 -8
702 -407 751 -435 8 -5 42 -24 75 -43 33 -19 76 -44 95 -54 19 -11 121 -70
225 -130 105 -61 207 -120 228 -132 52 -29 81 -46 257 -148 85 -49 214 -124
285 -165 72 -41 303 -175 515 -298 212 -122 405 -234 430 -248 25 -14 185
-106 355 -205 171 -99 328 -190 350 -202 22 -13 67 -38 100 -57 l60 -34 3
-2826 2 -2826 -107 3 c-113 5 -240 13 -308 20 -22 2 -67 7 -100 10 -67 7 -75
8 -235 30 -63 9 -133 20 -155 25 -22 5 -56 12 -75 15 -430 72 -973 254 -1435
480 -707 345 -1311 808 -1836 1405 -222 254 -471 599 -625 868 -12 20 -38 66
-59 102 -92 160 -309 618 -340 720 -4 14 -11 30 -15 35 -11 15 -124 352 -159
475 -28 100 -85 327 -95 380 -2 14 -11 59 -19 100 -21 106 -30 152 -32 175 -1
11 -5 38 -9 60 -11 67 -25 167 -31 230 -3 33 -8 78 -10 100 -15 140 -20 266
-20 540 0 363 13 570 50 815 49 319 90 511 171 795 78 274 212 624 340 890 53
110 124 245 129 245 2 0 74 -41 161 -91z"/>
<path d="M7285 11100 c-22 -5 -53 -11 -70 -14 -16 -3 -79 -15 -140 -26 -60
-12 -148 -28 -195 -36 -89 -16 -111 -20 -146 -28 -12 -2 -37 -7 -55 -10 -85
-14 -164 -28 -444 -80 -604 -112 -565 -102 -631 -162 -49 -46 -83 -114 -90
-181 -12 -115 -21 -95 368 -803 85 -156 92 -169 87 -174 -2 -2 -150 -84 -329
-183 -179 -99 -345 -192 -370 -205 -25 -14 -182 -102 -350 -196 -340 -189
-369 -205 -455 -252 -33 -18 -67 -39 -75 -46 -12 -12 -12 -14 3 -14 9 0 54
-15 99 -34 115 -47 197 -63 303 -60 100 3 171 19 278 65 189 80 357 78 572 -7
113 -45 208 -64 305 -59 94 4 149 18 273 67 115 46 156 53 297 52 110 0 128
-5 275 -61 112 -43 204 -61 298 -58 70 2 187 23 187 33 0 5 -14 32 -95 177
-33 59 -58 104 -110 200 -21 39 -70 129 -110 200 -39 72 -93 171 -120 220 -26
50 -67 124 -90 165 -23 41 -62 111 -85 155 -23 44 -48 89 -56 101 -7 11 -34
61 -59 110 -26 49 -51 94 -55 99 -4 6 -26 46 -50 90 -23 44 -51 94 -62 112
l-19 31 53 11 c29 6 116 22 193 36 77 14 151 27 165 30 14 3 86 16 160 30 74
14 146 27 160 30 30 6 231 42 280 50 125 20 209 67 264 148 106 156 49 372
-121 457 -52 26 -166 36 -238 20z"/>
<path d="M7508 10115 c-2 -2 -21 -5 -44 -8 -22 -3 -67 -16 -100 -28 -253 -94
-399 -368 -343 -641 26 -127 118 -266 224 -337 131 -88 333 -115 480 -65 223
77 375 292 375 531 0 250 -174 471 -420 534 -40 10 -165 20 -172 14z"/>
<path d="M4055 8336 c-33 -8 -89 -26 -125 -41 -114 -47 -193 -67 -277 -68 -16
-1 -23 -7 -24 -21 -3 -60 -4 -393 -1 -402 7 -23 152 5 272 51 166 64 257 78
394 61 56 -7 89 -17 261 -80 164 -59 329 -51 505 23 203 87 375 85 593 -5 181
-76 358 -75 545 2 72 30 110 41 197 60 29 6 174 5 210 -1 44 -8 168 -46 180
-55 19 -14 140 -49 195 -56 118 -15 210 -6 315 33 219 80 244 86 359 85 93 -1
160 -17 297 -68 105 -39 162 -53 242 -58 l27 -2 0 215 0 216 -48 2 c-66 4
-135 21 -222 56 -128 51 -195 65 -307 65 -110 0 -177 -14 -288 -61 -191 -81
-363 -81 -561 -1 -125 50 -201 65 -312 63 -97 -2 -212 -29 -292 -69 -30 -15
-74 -28 -155 -46 -30 -7 -185 -7 -223 0 -36 7 -137 40 -252 83 -69 26 -86 28
-215 27 l-140 0 -120 -46 c-152 -57 -210 -71 -304 -71 -100 0 -139 8 -241 44
-178 64 -230 77 -330 77 -52 1 -122 -5 -155 -12z"/>
<path d="M9438 6484 c-2 -1 -21 -5 -42 -8 -63 -10 -122 -41 -171 -91 -68 -68
-90 -122 -90 -225 0 -73 4 -93 28 -142 96 -196 357 -242 513 -92 159 153 119
420 -78 520 -39 20 -152 47 -160 38z"/>
<path d="M8155 5977 c-111 -37 -203 -115 -247 -209 -43 -90 -120 -420 -113
-479 11 -81 74 -144 157 -155 61 -8 130 23 162 75 15 22 37 98 61 201 20 91
42 176 48 190 21 44 54 47 184 16 65 -15 127 -30 138 -32 95 -19 207 -51 206
-59 0 -5 -47 -84 -103 -175 -393 -634 -429 -695 -448 -759 -21 -72 -23 -112
-44 -938 -1 -39 -4 -74 -7 -77 -3 -3 -210 -6 -461 -6 l-456 -1 -50 -25 c-149
-74 -148 -280 1 -361 29 -17 74 -18 542 -18 470 0 514 1 565 19 130 43 217
132 254 257 15 49 25 273 29 641 1 43 5 64 12 60 5 -3 30 -20 53 -37 24 -16
54 -37 66 -45 194 -132 537 -386 556 -412 l24 -33 1 -480 1 -481 26 -45 c41
-70 107 -107 183 -103 76 4 140 46 175 114 18 36 19 65 20 535 0 317 -3 512
-10 538 -27 107 -88 205 -177 287 -51 46 -271 207 -515 376 -33 23 -64 46 -70
52 -9 9 95 183 473 790 29 47 34 51 43 35 7 -11 11 -105 12 -253 0 -200 3
-242 18 -285 42 -116 116 -190 228 -226 69 -22 87 -24 323 -24 270 0 281 2
332 57 29 31 50 94 46 137 -4 47 -38 102 -81 131 -36 25 -40 25 -267 28 -126
1 -234 7 -239 12 -5 5 -8 62 -7 127 7 299 6 319 -24 403 -48 137 -173 270
-330 351 -76 40 -125 56 -345 118 -547 152 -837 204 -945 168z"/>
<path d="M3734 6642 c-180 -63 -270 -247 -207 -422 78 -218 350 -285 526 -130
100 88 134 249 79 374 -28 63 -95 131 -157 161 -72 33 -171 40 -241 17z"/>
<path d="M3375 5964 c-70 -17 -135 -66 -194 -147 -226 -310 -561 -798 -571
-831 -19 -62 -21 -106 -9 -161 15 -69 49 -124 114 -186 30 -28 57 -60 60 -70
4 -11 -9 -46 -31 -86 -21 -37 -74 -136 -118 -218 l-81 -150 -81 27 c-110 36
-150 42 -279 42 -135 0 -180 -7 -284 -40 -224 -73 -430 -261 -527 -480 -170
-384 -36 -851 311 -1083 228 -153 484 -193 747 -117 295 86 530 334 604 638
l19 77 37 -2 c21 -1 38 -5 38 -9 0 -5 16 -26 36 -48 81 -90 226 -86 303 7 19
23 45 87 81 201 29 92 53 172 53 178 0 12 67 83 335 359 323 333 362 373 366
367 8 -16 38 -114 35 -116 -2 -2 -24 -14 -49 -26 -195 -98 -362 -295 -434
-511 -37 -110 -51 -290 -31 -414 17 -112 72 -248 142 -354 31 -46 153 -176
194 -206 167 -121 336 -176 537 -176 98 1 108 2 197 22 317 70 579 331 655
652 111 467 -170 935 -635 1058 -125 33 -305 35 -427 4 -24 -6 -26 -3 -63 102
-28 83 -80 297 -98 408 -1 6 66 12 176 15 184 5 197 8 197 50 0 45 -38 56
-182 54 -60 0 -108 0 -108 2 0 2 10 22 22 45 46 88 20 179 -80 285 -52 56
-373 410 -415 458 -230 264 -315 345 -393 372 -32 11 -135 16 -169 8z m261
-657 c103 -115 397 -440 434 -481 25 -27 61 -59 81 -71 27 -18 39 -34 47 -66
6 -24 9 -45 7 -47 -2 -2 -207 -3 -457 -3 l-453 2 -57 56 -57 56 50 71 c28 39
121 171 207 294 86 122 159 222 162 222 4 0 20 -15 36 -33z m596 -826 c3 -1
11 -24 17 -52 9 -39 8 -53 -1 -63 -216 -225 -542 -556 -544 -553 -2 2 10 48
27 102 39 124 40 131 40 182 0 66 -30 109 -170 246 -71 70 -132 130 -135 135
-3 5 724 8 766 3z m-1080 -272 l185 -180 -39 -127 c-21 -70 -53 -172 -70 -227
l-31 -100 -52 180 c-29 99 -71 245 -94 325 -23 80 -50 172 -60 205 -10 33 -22
70 -25 83 -4 12 -5 22 -3 22 3 0 88 -81 189 -181z m-242 -104 c39 -137 104
-364 144 -502 42 -146 71 -263 68 -278 -3 -20 -10 -25 -36 -25 l-31 0 -3 62
c-12 246 -141 488 -345 645 l-57 44 36 67 c20 37 54 99 76 137 21 39 44 80 50
93 6 12 15 19 19 15 4 -5 39 -120 79 -258z m-518 -95 c71 -22 86 -33 70 -53
-5 -7 -33 -57 -62 -112 -29 -55 -63 -118 -75 -140 -103 -180 -205 -382 -205
-406 0 -45 22 -53 170 -63 100 -7 173 -13 268 -21 31 -3 91 -7 132 -10 105 -7
215 -16 216 -18 7 -9 -43 -159 -71 -213 -135 -259 -390 -409 -678 -399 -109 4
-181 20 -269 58 -385 171 -553 630 -366 1002 114 226 354 387 608 407 64 5
194 -11 262 -32z m2396 26 c273 -32 520 -236 605 -501 25 -77 29 -102 33 -210
15 -418 -332 -765 -749 -749 -136 5 -199 20 -306 73 -80 39 -112 62 -185 131
-320 302 -295 823 54 1105 39 32 129 85 143 85 8 0 35 -64 69 -162 95 -276
175 -502 189 -531 22 -47 86 -49 107 -2 13 29 13 30 -98 345 -39 113 -86 249
-105 302 l-34 97 52 10 c85 18 120 19 225 7z m-2082 -221 c120 -123 191 -277
207 -452 5 -48 4 -51 -16 -48 -12 2 -65 7 -117 10 -52 4 -115 8 -140 10 -25 2
-81 6 -125 9 -147 11 -230 18 -231 19 -1 1 66 127 149 279 174 321 145 303
273 173z"/>
</g>
</svg>
